<svg viewBox="0 0 1200 750" xmlns="http://www.w3.org/2000/svg" role="img" aria-hidden="true" focusable="false">
  <defs>
    <clipPath id="frame1">
      <rect width="1200" height="750" rx="20" />
    </clipPath>
  </defs>
  <g clip-path="url(#frame1)">
    <rect width="1200" height="750" fill="#FAFAFA" />
    <rect width="1200" height="64" fill="#0A0A0A" />
    <circle cx="32" cy="32" r="6" fill="#FAFAFA" fill-opacity="0.3" />
    <circle cx="56" cy="32" r="6" fill="#FAFAFA" fill-opacity="0.3" />
    <circle cx="80" cy="32" r="6" fill="#FAFAFA" fill-opacity="0.3" />
    <rect x="150" y="20" width="240" height="24" rx="6" fill="#FAFAFA" fill-opacity="0.15" />

    <rect x="120" y="150" width="150" height="22" rx="11" fill="#2D5CFF" />
    <rect x="120" y="206" width="580" height="46" rx="6" fill="#0A0A0A" />
    <rect x="120" y="264" width="420" height="46" rx="6" fill="#0A0A0A" />
    <rect x="120" y="336" width="400" height="18" rx="4" fill="#68686C" />
    <rect x="120" y="364" width="320" height="18" rx="4" fill="#68686C" />
    <rect x="120" y="424" width="176" height="50" rx="8" fill="#2D5CFF" />
    <rect x="316" y="424" width="140" height="50" rx="8" fill="none" stroke="#0A0A0A" stroke-opacity="0.2" stroke-width="1.5" />

    <rect x="800" y="150" width="280" height="344" rx="12" fill="#0A0A0A" fill-opacity="0.06" />
    <rect x="800" y="150" width="280" height="344" rx="12" fill="none" stroke="#0A0A0A" stroke-opacity="0.1" stroke-width="1.5" />
  </g>
</svg>
