<svg viewBox="0 0 1200 750" xmlns="http://www.w3.org/2000/svg" role="img" aria-hidden="true" focusable="false">
  <defs>
    <clipPath id="frame2">
      <rect width="1200" height="750" rx="20" />
    </clipPath>
  </defs>
  <g clip-path="url(#frame2)">
    <rect width="1200" height="750" fill="#FAFAFA" />
    <rect width="1200" height="64" fill="#0A0A0A" />
    <circle cx="32" cy="32" r="6" fill="#FAFAFA" fill-opacity="0.3" />
    <circle cx="56" cy="32" r="6" fill="#FAFAFA" fill-opacity="0.3" />
    <circle cx="80" cy="32" r="6" fill="#FAFAFA" fill-opacity="0.3" />
    <rect x="500" y="20" width="200" height="24" rx="6" fill="#FAFAFA" fill-opacity="0.15" />

    <rect x="450" y="120" width="300" height="20" rx="10" fill="#2D5CFF" />
    <rect x="330" y="168" width="540" height="46" rx="6" fill="#0A0A0A" />
    <rect x="390" y="224" width="420" height="46" rx="6" fill="#0A0A0A" />
    <rect x="420" y="290" width="360" height="18" rx="4" fill="#68686C" />
    <rect x="460" y="316" width="280" height="18" rx="4" fill="#68686C" />
    <rect x="512" y="368" width="176" height="50" rx="8" fill="#2D5CFF" />

    <rect x="150" y="470" width="900" height="220" rx="12" fill="#0A0A0A" fill-opacity="0.06" />
    <rect x="150" y="470" width="900" height="220" rx="12" fill="none" stroke="#0A0A0A" stroke-opacity="0.1" stroke-width="1.5" />
  </g>
</svg>
